<svg xmlns="http://www.w3.org/2000/svg" width="1200" height="630" viewBox="0 0 1200 630">
  <!-- Background -->
  <rect width="1200" height="630" fill="#0B0F17"/>
  
  <!-- Gradient Background Effect -->
  <circle cx="300" cy="315" r="400" fill="#3B82F6" fill-opacity="0.1"/>
  <circle cx="900" cy="315" r="400" fill="#8B5CF6" fill-opacity="0.1"/>
  
  <!-- Logo -->
  <g transform="translate(150, 165) scale(0.6)">
    <rect width="512" height="512" rx="128" fill="#0B0F17"/>
    <path fill="#3B82F6" d="M256 128c-70.7 0-128 57.3-128 128s57.3 128 128 128 128-57.3 128-128S326.7 128 256 128zm0 224c-52.9 0-96-43.1-96-96s43.1-96 96-96 96 43.1 96 96-43.1 96-96 96zm32-136c0-17.7-14.3-32-32-32s-32 14.3-32 32 14.3 32 32 32 32-14.3 32-32zm64 40c0 53-43 96-96 96s-96-43-96-96c0-53 43-96 96-96s96 43 96 96z"/>
  </g>
  
  <!-- Text -->
  <text x="500" y="250" font-family="Arial, sans-serif" font-size="72" font-weight="bold" fill="#FFFFFF">DeSpy AI</text>
  <text x="500" y="350" font-family="Arial, sans-serif" font-size="32" fill="#9CA3AF">AI-Powered Blockchain Security &amp; Analysis</text>
</svg> 